<svg width="1440" height="1136" viewBox="0 0 1440 1136" fill="none" xmlns="http://www.w3.org/2000/svg">
<line x1="41.125" y1="5.46392e-09" x2="41.125" y2="1136" stroke="#E2E2E2" stroke-opacity="0.2" stroke-width="0.25"/>
<line x1="132.125" y1="5.46392e-09" x2="132.125" y2="1136" stroke="#E2E2E2" stroke-opacity="0.2" stroke-width="0.25"/>
<line x1="156.125" y1="5.46392e-09" x2="156.125" y2="1136" stroke="#E2E2E2" stroke-opacity="0.2" stroke-width="0.25"/>
<line x1="248.125" y1="5.46392e-09" x2="248.125" y2="1136" stroke="#E2E2E2" stroke-opacity="0.2" stroke-width="0.25"/>
<line x1="272.125" y1="5.46392e-09" x2="272.125" y2="1136" stroke="#E2E2E2" stroke-opacity="0.2" stroke-width="0.25"/>
<line x1="363.125" y1="5.46392e-09" x2="363.125" y2="1136" stroke="#E2E2E2" stroke-opacity="0.2" stroke-width="0.25"/>
<line x1="387.125" y1="5.46392e-09" x2="387.125" y2="1136" stroke="#E2E2E2" stroke-opacity="0.2" stroke-width="0.25"/>
<line x1="478.125" y1="5.46392e-09" x2="478.125" y2="1136" stroke="#E2E2E2" stroke-opacity="0.2" stroke-width="0.25"/>
<line x1="502.125" y1="5.46392e-09" x2="502.125" y2="1136" stroke="#E2E2E2" stroke-opacity="0.2" stroke-width="0.25"/>
<line x1="594.125" y1="5.46392e-09" x2="594.125" y2="1136" stroke="#E2E2E2" stroke-opacity="0.2" stroke-width="0.25"/>
<line x1="618.125" y1="5.46392e-09" x2="618.125" y2="1136" stroke="#E2E2E2" stroke-opacity="0.2" stroke-width="0.25"/>
<line x1="709.125" y1="5.46392e-09" x2="709.125" y2="1136" stroke="#E2E2E2" stroke-opacity="0.2" stroke-width="0.25"/>
<line x1="733.125" y1="5.46392e-09" x2="733.125" y2="1136" stroke="#E2E2E2" stroke-opacity="0.2" stroke-width="0.25"/>
<line x1="824.125" y1="5.46392e-09" x2="824.125" y2="1136" stroke="#E2E2E2" stroke-opacity="0.2" stroke-width="0.25"/>
<line x1="848.125" y1="5.46392e-09" x2="848.125" y2="1136" stroke="#E2E2E2" stroke-opacity="0.2" stroke-width="0.25"/>
<line x1="940.125" y1="5.46392e-09" x2="940.125" y2="1136" stroke="#E2E2E2" stroke-opacity="0.2" stroke-width="0.25"/>
<line x1="964.125" y1="5.46392e-09" x2="964.125" y2="1136" stroke="#E2E2E2" stroke-opacity="0.2" stroke-width="0.25"/>
<line x1="1055.12" y1="5.46392e-09" x2="1055.12" y2="1136" stroke="#E2E2E2" stroke-opacity="0.2" stroke-width="0.25"/>
<line x1="1079.12" y1="5.46392e-09" x2="1079.12" y2="1136" stroke="#E2E2E2" stroke-opacity="0.2" stroke-width="0.25"/>
<line x1="1170.12" y1="5.46392e-09" x2="1170.12" y2="1136" stroke="#E2E2E2" stroke-opacity="0.2" stroke-width="0.25"/>
<line x1="1194.12" y1="5.46392e-09" x2="1194.12" y2="1136" stroke="#E2E2E2" stroke-opacity="0.2" stroke-width="0.25"/>
<line x1="1286.12" y1="5.46392e-09" x2="1286.12" y2="1136" stroke="#E2E2E2" stroke-opacity="0.2" stroke-width="0.25"/>
<line x1="1310.12" y1="5.46392e-09" x2="1310.12" y2="1136" stroke="#E2E2E2" stroke-opacity="0.2" stroke-width="0.25"/>
<line x1="1401.12" y1="5.46392e-09" x2="1401.12" y2="1136" stroke="#E2E2E2" stroke-opacity="0.2" stroke-width="0.25"/>
</svg>
