<svg width="83" height="83" viewBox="0 0 83 83" fill="none" xmlns="http://www.w3.org/2000/svg">
<path d="M39.32 64.8645C26.6 64.2645 16.48 53.7845 16.48 40.9045C16.48 27.6645 27.24 16.9045 40.48 16.9045C53.36 16.9045 63.84 27.0245 64.44 39.7445L56.04 37.2245C54.4 30.1445 48.04 24.9045 40.48 24.9045C31.64 24.9045 24.48 32.0645 24.48 40.9045C24.48 48.4645 29.72 54.8245 36.8 56.4645L39.32 64.8645ZM80.48 40.9045C80.48 42.1045 80.44 43.3045 80.32 44.5045L72.44 42.1445C72.48 41.7445 72.48 41.3045 72.48 40.9045C72.48 23.2245 58.16 8.90448 40.48 8.90448C22.8 8.90448 8.48 23.2245 8.48 40.9045C8.48 58.5845 22.8 72.9045 40.48 72.9045C40.88 72.9045 41.32 72.9045 41.72 72.8645L44.08 80.7445C42.88 80.8645 41.68 80.9045 40.48 80.9045C18.4 80.9045 0.479996 62.9845 0.479996 40.9045C0.479996 18.8245 18.4 0.90448 40.48 0.90448C62.56 0.90448 80.48 18.8245 80.48 40.9045ZM65.4 57.9445L80.48 52.9045L40.48 40.9045L52.48 80.9045L57.52 65.8245L74.6 82.9045L82.52 74.9845L65.4 57.9445Z" fill="#FFFDF1"/>
</svg>
