<svg width="82" height="144" viewBox="0 0 82 144" fill="none" xmlns="http://www.w3.org/2000/svg">
<path d="M34.0089 74.5387C39.7897 64.0771 50.9008 57.9055 57.3572 48.6482C64.189 38.9392 60.3602 20.8008 40.9909 20.8008C28.3032 20.8008 22.072 30.4345 19.4444 38.4124L0 30.2087C5.33032 14.1776 19.8198 0.40448 40.9158 0.40448C58.5584 0.40448 70.6455 8.45764 76.8016 18.5429C82.0568 27.1982 85.1349 43.3797 77.0268 55.4219C68.0178 68.7434 59.3842 72.8076 54.7296 81.3876C52.8527 84.8497 52.102 87.1076 52.102 98.2466H30.4053C30.3302 92.3761 29.4293 82.8176 34.0089 74.5387ZM56.0059 128.352C56.0059 136.631 49.2491 143.404 40.9909 143.404C32.7326 143.404 25.9759 136.631 25.9759 128.352C25.9759 120.073 32.7326 113.299 40.9909 113.299C49.2491 113.299 56.0059 120.073 56.0059 128.352Z" fill="#FFFDF1"/>
</svg>
