<svg width="105" height="115" viewBox="0 0 105 115" fill="none" xmlns="http://www.w3.org/2000/svg">
<path d="M53.6174 51.0903L59.7861 40.7188C60.1827 40.076 60.0064 39.2617 59.4336 38.7903L52.9124 33.8188C53.0446 32.876 53.1327 31.8903 53.1327 30.9045C53.1327 29.9188 53.0446 28.9331 52.9124 27.9474L59.4336 22.976C60.0064 22.5045 60.1827 21.6903 59.7861 21.0474L53.6174 10.676C53.2208 10.0331 52.4277 9.77597 51.7227 10.0331L44.0559 13.0331C42.4696 11.8331 40.7512 10.8474 38.8565 10.076L37.7109 2.1474C37.5787 1.46168 36.9178 0.904541 36.1687 0.904541H23.8313C23.0822 0.904541 22.4213 1.46168 22.2891 2.19026L21.1435 10.1188C19.2929 10.8903 17.5304 11.876 15.9441 13.076L8.27728 10.076C7.57228 9.81883 6.77916 10.076 6.3826 10.7188L0.213872 21.0903C-0.182689 21.7331 -0.00643908 22.5474 0.566371 23.0188L7.08759 27.9903C6.95541 28.9331 6.86728 29.9188 6.86728 30.9045C6.86728 31.8903 6.95541 32.876 7.08759 33.8617L0.566371 38.8331C-0.00643908 39.3045 -0.182689 40.1188 0.213872 40.7617L6.3826 51.1331C6.77916 51.776 7.57228 52.0331 8.27728 51.776L15.9441 48.776C17.5304 49.976 19.2488 50.9617 21.1435 51.7331L22.2891 59.6617C22.4213 60.3474 23.0822 60.9045 23.8313 60.9045H36.1687C36.9178 60.9045 37.5787 60.3474 37.7109 59.6188L38.8565 51.6903C40.7071 50.9188 42.4696 49.9331 44.0559 48.7331L51.7227 51.7331C52.4277 51.9903 53.2208 51.7331 53.6174 51.0903ZM30 39.476C25.1531 39.476 21.1875 35.6188 21.1875 30.9045C21.1875 26.1903 25.1531 22.3331 30 22.3331C34.8469 22.3331 38.8125 26.1903 38.8125 30.9045C38.8125 35.6188 34.8469 39.476 30 39.476Z" fill="#FFFDF1"/>
<path d="M104.439 92.8733L97.8435 87.9179C97.9809 86.9804 98.1183 85.976 98.1183 84.9715C98.1183 83.967 98.0496 82.9626 97.8435 82.0251L104.37 77.0697C104.92 76.601 105.126 75.7974 104.714 75.1278L98.5305 64.7483C98.187 64.0787 97.3626 63.8778 96.6068 64.0786L88.9809 67.092C87.4007 65.8867 85.6832 64.8822 83.7595 64.1456L82.5916 56.2438C82.5229 55.4403 81.8359 54.9045 81.1488 54.9045H68.8512C68.0954 54.9045 67.4084 55.4403 67.3397 56.1769L66.1718 64.0786C64.3168 64.8822 62.5306 65.8197 60.9504 67.0251L53.3245 64.0117C52.6374 63.7438 51.813 64.0117 51.4008 64.6813L45.2176 75.0608C44.8741 75.7304 44.9428 76.534 45.5611 77.0028L52.0878 81.9581C51.9504 82.8956 51.8817 83.9001 51.8817 84.9045C51.8817 85.909 51.9504 86.9135 52.0878 87.851L45.5611 92.8063C45.0115 93.2751 44.8054 94.0787 45.2176 94.7483L51.4008 105.128C51.7443 105.797 52.5687 105.998 53.3245 105.797L60.9504 102.784C62.5306 103.989 64.2481 104.994 66.1718 105.73L67.3397 113.632C67.4771 114.369 68.0954 114.905 68.8512 114.905H81.1488C81.9046 114.905 82.5916 114.369 82.6603 113.632L83.8282 105.73C85.6832 104.927 87.4694 103.989 88.9809 102.784L96.6755 105.797C97.3626 106.065 98.187 105.797 98.5992 105.128L104.782 94.7483C105.195 94.1456 104.988 93.342 104.439 92.8733ZM74.9656 93.9447C69.8817 93.9447 65.6909 89.9269 65.6909 84.9045C65.6909 79.8822 69.813 75.8644 74.9656 75.8644C80.1183 75.8644 84.2404 79.8822 84.2404 84.9045C84.2404 89.9269 80.0496 93.9447 74.9656 93.9447Z" fill="#FFFDF1"/>
</svg>
