<svg width="1361" height="1136" viewBox="0 0 1361 1136" fill="none" xmlns="http://www.w3.org/2000/svg">
<line x1="0.125" y1="5.46392e-09" x2="0.12495" y2="1136" stroke="black" stroke-opacity="0.2" stroke-width="0.25"/>
<line x1="91.125" y1="5.46392e-09" x2="91.1249" y2="1136" stroke="black" stroke-opacity="0.2" stroke-width="0.25"/>
<line x1="115.125" y1="5.46392e-09" x2="115.125" y2="1136" stroke="black" stroke-opacity="0.2" stroke-width="0.25"/>
<line x1="207.125" y1="5.46392e-09" x2="207.125" y2="1136" stroke="black" stroke-opacity="0.2" stroke-width="0.25"/>
<line x1="231.125" y1="5.46392e-09" x2="231.125" y2="1136" stroke="black" stroke-opacity="0.2" stroke-width="0.25"/>
<line x1="322.125" y1="5.46392e-09" x2="322.125" y2="1136" stroke="black" stroke-opacity="0.2" stroke-width="0.25"/>
<line x1="346.125" y1="5.46392e-09" x2="346.125" y2="1136" stroke="black" stroke-opacity="0.2" stroke-width="0.25"/>
<line x1="437.125" y1="5.46392e-09" x2="437.125" y2="1136" stroke="black" stroke-opacity="0.2" stroke-width="0.25"/>
<line x1="461.125" y1="5.46392e-09" x2="461.125" y2="1136" stroke="black" stroke-opacity="0.2" stroke-width="0.25"/>
<line x1="553.125" y1="5.46392e-09" x2="553.125" y2="1136" stroke="black" stroke-opacity="0.2" stroke-width="0.25"/>
<line x1="577.125" y1="5.46392e-09" x2="577.125" y2="1136" stroke="black" stroke-opacity="0.2" stroke-width="0.25"/>
<line x1="668.125" y1="5.46392e-09" x2="668.125" y2="1136" stroke="black" stroke-opacity="0.2" stroke-width="0.25"/>
<line x1="692.125" y1="5.46392e-09" x2="692.125" y2="1136" stroke="black" stroke-opacity="0.2" stroke-width="0.25"/>
<line x1="783.125" y1="5.46392e-09" x2="783.125" y2="1136" stroke="black" stroke-opacity="0.2" stroke-width="0.25"/>
<line x1="807.125" y1="5.46392e-09" x2="807.125" y2="1136" stroke="black" stroke-opacity="0.2" stroke-width="0.25"/>
<line x1="899.125" y1="5.46392e-09" x2="899.125" y2="1136" stroke="black" stroke-opacity="0.2" stroke-width="0.25"/>
<line x1="923.125" y1="5.46392e-09" x2="923.125" y2="1136" stroke="black" stroke-opacity="0.2" stroke-width="0.25"/>
<line x1="1014.12" y1="5.46392e-09" x2="1014.12" y2="1136" stroke="black" stroke-opacity="0.2" stroke-width="0.25"/>
<line x1="1038.12" y1="5.46392e-09" x2="1038.12" y2="1136" stroke="black" stroke-opacity="0.2" stroke-width="0.25"/>
<line x1="1129.12" y1="5.46392e-09" x2="1129.12" y2="1136" stroke="black" stroke-opacity="0.2" stroke-width="0.25"/>
<line x1="1153.12" y1="5.46392e-09" x2="1153.12" y2="1136" stroke="black" stroke-opacity="0.2" stroke-width="0.25"/>
<line x1="1245.12" y1="5.46392e-09" x2="1245.12" y2="1136" stroke="black" stroke-opacity="0.2" stroke-width="0.25"/>
<line x1="1269.12" y1="5.46392e-09" x2="1269.12" y2="1136" stroke="black" stroke-opacity="0.2" stroke-width="0.25"/>
<line x1="1360.12" y1="5.46392e-09" x2="1360.12" y2="1136" stroke="black" stroke-opacity="0.2" stroke-width="0.25"/>
</svg>
